<svg xmlns="http://www.w3.org/2000/svg" version="1.0" width="60pt" height="60pt" viewBox="0 0 100.000000 100.000000" preserveAspectRatio="xMidYMid meet">
<g transform="translate(0.000000,100.000000) scale(0.100000,-0.100000)" fill="#000000" stroke="none">
<path d="M210 728 c0 -14 -7 -28 -15 -32 -8 -3 -15 -14 -15 -25 0 -11 -5 -21 -11 -23 -10 -3 -38 -246 -39 -335 l0 -43 164 0 c99 0 167 -4 171 -10 9 -15 57 -12 79 5 17 13 46 14 173 8 l153 -6 0 34 c0 19 -7 103 -15 187 -10 108 -19 157 -30 168 -8 9 -15 22 -15 30 0 8 -4 14 -10 14 -5 0 -10 12 -10 26 l0 27 -68 -6 c-78 -6 -164 -36 -198 -68 l-24 -22 -24 22 c-34 32 -120 62 -198 68 -68 6 -68 6 -68 -19z m177 -30 c28 -10 63 -28 77 -39 l26 -20 0 -163 0 -163 -65 33 c-37 19 -96 38 -140 45 -54 9 -75 17 -75 28 0 24 20 243 26 278 5 32 5 32 52 26 26 -3 70 -14 99 -25z m377 -10 c6 -48 26 -255 26 -273 0 -6 -32 -17 -72 -23 -40 -7 -103 -27 -140 -45 l-68 -33 0 161 c0 183 -2 177 84 216 41 18 101 33 153 38 7 0 14 -17 17 -41z m-425 -334 c29 -9 51 -18 48 -20 -5 -6 -199 15 -206 21 -1 2 0 8 3 14 8 13 78 5 155 -15z m478 10 c4 -11 -195 -40 -204 -30 -11 11 146 46 186 42 8 0 16 -6 18 -12z m-487 -53 c36 -7 22 -9 -67 -10 -70 -1 -113 3 -113 9 0 12 115 12 180 1z m520 -1 c0 -6 -43 -9 -112 -8 -84 1 -101 3 -68 8 72 11 180 11 180 0z"/>
</g>
</svg>