<svg width="20" height="20" viewBox="0 0 16 16" fill="none" xmlns="http://www.w3.org/2000/svg">
<path d="M8 0.5C3.86417 0.5 0.5 3.865 0.5 8C0.5 12.135 3.86417 15.5 8 15.5C12.1358 15.5 15.5 12.135 15.5 8C15.5 3.865 12.1358 0.5 8 0.5ZM8 13.8333C4.78417 13.8333 2.16667 11.2167 2.16667 8C2.16667 4.78333 4.78417 2.16667 8 2.16667C11.2158 2.16667 13.8333 4.78333 13.8333 8C13.8333 11.2167 11.2158 13.8333 8 13.8333ZM8.58917 8L10.7942 5.795C10.8719 5.71665 10.9155 5.61077 10.9155 5.50042C10.9155 5.39007 10.8719 5.28418 10.7942 5.20583C10.7158 5.12813 10.6099 5.08452 10.4996 5.08452C10.3892 5.08452 10.2834 5.12813 10.205 5.20583L8 7.41083L5.795 5.205C5.71642 5.1291 5.61116 5.0871 5.50192 5.08805C5.39267 5.089 5.28816 5.13282 5.21091 5.21008C5.13366 5.28733 5.08984 5.39183 5.08889 5.50108C5.08794 5.61033 5.12993 5.71558 5.20583 5.79417L7.41083 8L5.20583 10.205C5.12759 10.2831 5.0836 10.3891 5.08352 10.4997C5.08344 10.6103 5.12729 10.7163 5.20542 10.7946C5.28354 10.8728 5.38955 10.9168 5.50012 10.9169C5.61069 10.917 5.71676 10.8731 5.795 10.795L8 8.58917L10.205 10.7942C10.2434 10.834 10.2893 10.8658 10.3401 10.8877C10.3909 10.9096 10.4456 10.9212 10.5009 10.9218C10.5562 10.9223 10.6111 10.9118 10.6623 10.891C10.7136 10.8701 10.7601 10.8392 10.7993 10.8002C10.8385 10.7611 10.8695 10.7146 10.8905 10.6634C10.9115 10.6123 10.9222 10.5574 10.9218 10.5021C10.9214 10.4468 10.9099 10.3921 10.8882 10.3412C10.8664 10.2903 10.8347 10.2443 10.795 10.2058L8.58917 8Z" fill="red"/>
</svg>
