<svg width="40" height="40" viewBox="0 0 40 40" fill="none" xmlns="http://www.w3.org/2000/svg">
<path d="M20 0C8.98 0 0 8.98 0 20C0 31.02 8.98 40 20 40C31.02 40 40 31.02 40 20C40 8.98 31.02 0 20 0ZM28 21.5H21.5V28C21.5 28.82 20.82 29.5 20 29.5C19.18 29.5 18.5 28.82 18.5 28V21.5H12C11.18 21.5 10.5 20.82 10.5 20C10.5 19.18 11.18 18.5 12 18.5H18.5V12C18.5 11.18 19.18 10.5 20 10.5C20.82 10.5 21.5 11.18 21.5 12V18.5H28C28.82 18.5 29.5 19.18 29.5 20C29.5 20.82 28.82 21.5 28 21.5Z" fill="#B9E6D8"/>
</svg>
