<svg width="30" height="31" viewBox="0 0 30 31" fill="none" xmlns="http://www.w3.org/2000/svg">
<path d="M28.8462 30.7572H1.15385C0.523077 30.7572 0 30.2341 0 29.6034C0 28.9726 0.523077 28.4495 1.15385 28.4495H28.8462C29.4769 28.4495 30 28.9726 30 29.6034C30 30.2341 29.4769 30.7572 28.8462 30.7572Z" fill="#D8D8D8"/>
<path d="M25.8009 2.2674C22.8163 -0.717216 19.8932 -0.794139 16.8317 2.2674L14.9702 4.12894C14.8163 4.28278 14.7548 4.52894 14.8163 4.74432C15.9855 8.82125 19.2471 12.0828 23.324 13.252C23.3855 13.2674 23.4471 13.2828 23.5086 13.2828C23.6778 13.2828 23.8317 13.2212 23.9548 13.0981L25.8009 11.2366C27.324 9.72894 28.0625 8.2674 28.0625 6.79048C28.0778 5.2674 27.3394 3.79048 25.8009 2.2674Z" fill="#D8D8D8"/>
<path d="M20.5543 14.6508C20.1082 14.4354 19.6774 14.22 19.262 13.9738C18.9235 13.7738 18.6005 13.5584 18.2774 13.3277C18.0158 13.1584 17.7082 12.9123 17.4158 12.6661C17.3851 12.6508 17.2774 12.5584 17.1543 12.4354C16.6466 12.0046 16.0774 11.4507 15.5697 10.8353C15.5235 10.8046 15.4466 10.6969 15.3389 10.5584C15.1851 10.3738 14.9235 10.0661 14.6928 9.71226C14.5082 9.48149 14.2928 9.14303 14.0928 8.80457C13.8466 8.38919 13.6312 7.9738 13.4158 7.54303C13.3832 7.4732 13.3517 7.40371 13.3212 7.33463C13.0942 6.82183 12.4254 6.67191 12.0289 7.06846L3.21588 15.8815C3.01588 16.0815 2.83126 16.4661 2.78511 16.7277L1.95434 22.62C1.80049 23.6661 2.0928 24.6508 2.73895 25.3123C3.2928 25.8508 4.06203 26.1431 4.8928 26.1431C5.07741 26.1431 5.26203 26.1277 5.44664 26.0969L11.3543 25.2661C11.6313 25.22 12.0158 25.0354 12.2005 24.8354L21.0025 16.0334C21.4018 15.634 21.2512 14.9488 20.7318 14.7271C20.6734 14.7021 20.6142 14.6766 20.5543 14.6508Z" fill="#D8D8D8"/>
</svg>
