<svg width="28" height="30" viewBox="0 0 28 30" fill="none" xmlns="http://www.w3.org/2000/svg">
<path d="M26.2533 5.55091C24.0078 5.32775 21.7624 5.16039 19.5029 5.03487V5.02092L19.1961 3.20781C18.9869 1.92469 18.6801 0 15.4165 0H11.7624C8.51266 0 8.20582 1.841 7.98267 3.19386L7.68978 4.97908C6.39271 5.06276 5.09564 5.14644 3.79857 5.27197L0.953383 5.55091C0.367609 5.60669 -0.0508012 6.12273 0.00498678 6.69456C0.0607748 7.26639 0.562867 7.6848 1.14864 7.62901L3.99383 7.35007C11.3021 6.62483 18.6661 6.90377 26.058 7.64296H26.1696C26.6996 7.64296 27.1598 7.23849 27.2156 6.69456C27.2575 6.12273 26.8391 5.60669 26.2533 5.55091Z" fill="#D8D8D8"/>
<path d="M23.687 9.60949C23.3523 9.26081 22.892 9.06555 22.4179 9.06555H4.78891C4.31471 9.06555 3.84051 9.26081 3.51973 9.60949C3.19895 9.95816 3.01764 10.4324 3.04554 10.9205L3.91025 25.2301C4.06367 27.3501 4.25892 30 9.12643 30H18.0803C22.9478 30 23.1432 27.364 23.2965 25.2301L24.1612 10.9345C24.1891 10.4324 24.0078 9.95816 23.687 9.60949ZM15.9185 23.0126H11.2742C10.7024 23.0126 10.2282 22.5384 10.2282 21.9665C10.2282 21.3947 10.7024 20.9205 11.2742 20.9205H15.9185C16.4904 20.9205 16.9646 21.3947 16.9646 21.9665C16.9646 22.5384 16.4904 23.0126 15.9185 23.0126ZM17.0901 17.4338H10.1167C9.54484 17.4338 9.07064 16.9596 9.07064 16.3877C9.07064 15.8159 9.54484 15.3417 10.1167 15.3417H17.0901C17.6619 15.3417 18.1361 15.8159 18.1361 16.3877C18.1361 16.9596 17.6619 17.4338 17.0901 17.4338Z" fill="#D8D8D8"/>
</svg>
